<svg width="14" height="14" viewBox="0 0 14 14" fill="none" xmlns="http://www.w3.org/2000/svg">
<g id="list-diamond">
<path id="Diamond" d="M13.9315 4.06284L10.6713 0.935851C10.6307 0.897394 10.5769 0.830566 10.521 0.830566H3.47895C3.4231 0.830566 3.36927 0.897394 3.32867 0.935851L0.06846 4.04011C-0.0133525 4.11744 -0.023065 4.25571 0.0460381 4.34457C0.0919756 4.40372 6.78874 13.0345 6.8386 13.0905C6.86098 13.1156 6.89116 13.1389 6.91359 13.1487C6.97405 13.175 7.02464 13.177 7.08642 13.1501C7.10884 13.1403 7.13901 13.1206 7.16141 13.0954C7.16471 13.0917 7.16965 13.0905 7.17272 13.0866L13.954 4.35577C14.0231 4.26689 14.0134 4.14017 13.9315 4.06284ZM3.41848 1.40752L4.51103 3.89307H0.788847L3.41848 1.40752ZM5.2674 3.89307L6.99999 1.42957L8.7326 3.89307H5.2674ZM8.90732 4.33057L6.99999 11.9599L5.09269 4.33057H8.90732V4.33057ZM7.42126 1.26807H10.1649L9.10964 3.66876L7.42126 1.26807ZM4.89037 3.66876L3.83512 1.26807H6.57874L4.89037 3.66876ZM4.64169 4.33057L6.53598 11.9077L0.650882 4.33057H4.64169ZM9.35831 4.33057H13.3491L7.46403 11.9077L9.35831 4.33057ZM9.48897 3.89307L10.5815 1.40752L13.2112 3.89307H9.48897Z" fill="#A47E1B"/>
</g>
</svg>
