<svg width="50" height="50" viewBox="0 0 50 50" fill="none" xmlns="http://www.w3.org/2000/svg">
<path d="M5.83333 32.5C3.995 32.5 2.5 33.995 2.5 35.8333C2.5 37.6717 3.995 39.1667 5.83333 39.1667C7.67167 39.1667 9.16667 37.6717 9.16667 35.8333C9.16667 33.995 7.67167 32.5 5.83333 32.5ZM5.83333 37.5C4.91417 37.5 4.16667 36.7525 4.16667 35.8333C4.16667 34.9142 4.91417 34.1667 5.83333 34.1667C6.7525 34.1667 7.5 34.9142 7.5 35.8333C7.5 36.7525 6.7525 37.5 5.83333 37.5Z" fill="#A47E1B"/>
<path d="M46.6667 31.6667C46.2067 31.6667 45.8333 32.0392 45.8333 32.5V35.8333C45.8333 36.2942 46.2067 36.6667 46.6667 36.6667C47.1267 36.6667 47.5 36.2942 47.5 35.8333V32.5C47.5 32.0392 47.1267 31.6667 46.6667 31.6667Z" fill="#A47E1B"/>
<path d="M46.6667 37.5C46.2067 37.5 45.8333 37.8725 45.8333 38.3333V39.1667C45.8333 39.6275 46.2067 40 46.6667 40C47.1267 40 47.5 39.6275 47.5 39.1667V38.3333C47.5 37.8725 47.1267 37.5 46.6667 37.5Z" fill="#A47E1B"/>
<path d="M30 5H29.1667C28.7067 5 28.3333 5.3725 28.3333 5.83333C28.3333 6.29417 28.7067 6.66667 29.1667 6.66667H30C30.46 6.66667 30.8333 6.29417 30.8333 5.83333C30.8333 5.3725 30.46 5 30 5Z" fill="#A47E1B"/>
<path d="M42.5 5C42.04 5 41.6667 5.3725 41.6667 5.83333C41.6667 6.29417 42.04 6.66667 42.5 6.66667H43.3333C43.7933 6.66667 44.1667 6.29417 44.1667 5.83333C44.1667 5.3725 43.7933 5 43.3333 5H42.5Z" fill="#A47E1B"/>
<path d="M45.8333 5C45.3733 5 45 5.3725 45 5.83333C45 6.29417 45.3733 6.66667 45.8333 6.66667H46.6667C47.1267 6.66667 47.5 6.29417 47.5 5.83333C47.5 5.3725 47.1267 5 46.6667 5H45.8333Z" fill="#A47E1B"/>
<path d="M33.3333 5H32.5C32.04 5 31.6667 5.3725 31.6667 5.83333C31.6667 6.29417 32.04 6.66667 32.5 6.66667H33.3333C33.7933 6.66667 34.1667 6.29417 34.1667 5.83333C34.1667 5.3725 33.7933 5 33.3333 5Z" fill="#A47E1B"/>
<path d="M39.1667 5C38.7067 5 38.3333 5.3725 38.3333 5.83333C38.3333 6.29417 38.7067 6.66667 39.1667 6.66667H40C40.46 6.66667 40.8333 6.29417 40.8333 5.83333C40.8333 5.3725 40.46 5 40 5H39.1667Z" fill="#A47E1B"/>
<path d="M36.6667 5H35.8333C35.3733 5 35 5.3725 35 5.83333C35 6.29417 35.3733 6.66667 35.8333 6.66667H36.6667C37.1267 6.66667 37.5 6.29417 37.5 5.83333C37.5 5.3725 37.1267 5 36.6667 5Z" fill="#A47E1B"/>
<path d="M26.6667 5H25.8333C25.3733 5 25 5.3725 25 5.83333C25 6.29417 25.3733 6.66667 25.8333 6.66667H26.6667C27.1267 6.66667 27.5 6.29417 27.5 5.83333C27.5 5.3725 27.1267 5 26.6667 5Z" fill="#A47E1B"/>
<path d="M49.9158 24.5692C49.8117 24.0817 49.6083 23.6325 49.3317 23.2375C49.71 23.1592 50 22.8392 50 22.4375V21.61C50 21.1492 49.6267 20.7767 49.1667 20.7767C48.7067 20.7767 48.3333 21.1492 48.3333 21.61V22.27C48.3233 22.2633 48.3125 22.2592 48.3025 22.2525C48.1542 22.1575 48 22.0742 47.84 22.0008C47.7917 21.9792 47.745 21.9567 47.6958 21.9367C47.6592 21.9217 47.625 21.9025 47.5883 21.8892C47.5583 21.8783 47.5283 21.8825 47.4983 21.875C47.1283 21.75 46.74 21.6667 46.3292 21.6667H45.0408H44.28H41.9992H41.2392H38.9575H38.1975H35.9167H35.1558H32.875H32.1142H29.8333H29.0725H26.7917H26.0308H24.0458C23.9017 21.42 23.64 21.25 23.3325 21.25C23.0275 21.25 22.7717 21.4225 22.6267 21.6667H3.67083C1.64667 21.6667 0 23.3142 0 25.3375V46.3283C0 48.3525 1.64667 50 3.67083 50H46.3283C48.3533 50 50 48.3525 50 46.3292V25.3375V24.9208C50 24.7942 49.9667 24.6767 49.9158 24.5692ZM23.75 23.3333H26.0308H26.7917H29.0725H29.8333H32.1142H32.875H35.1558H35.9167H38.1975H38.9575H41.2392H41.9992H43.3333V48.3333H11.6667V23.3333H22.5H23.75ZM1.66667 46.3292V25.3375C1.66667 24.2325 2.56583 23.3333 3.67083 23.3333H10V48.3333H3.67083C2.56583 48.3333 1.66667 47.4342 1.66667 46.3292ZM48.3333 46.3292C48.3333 47.4342 47.4342 48.3333 46.3292 48.3333H45V23.3333H45.0408H46.3292C46.585 23.3333 46.8267 23.3858 47.0517 23.4733C47.1992 23.5308 47.34 23.6033 47.4708 23.6942C47.9908 24.0567 48.3333 24.6567 48.3333 25.3375V46.3292Z" fill="#A47E1B"/>
<path d="M48.3333 19.125C48.3333 19.5858 48.7067 19.9583 49.1667 19.9583C49.6267 19.9583 50 19.5858 50 19.125V18.2975C50 17.8367 49.6267 17.4642 49.1667 17.4642C48.7067 17.4642 48.3333 17.8367 48.3333 18.2975V19.125Z" fill="#A47E1B"/>
<path d="M48.3333 12.5017C48.3333 12.9625 48.7067 13.335 49.1667 13.335C49.6267 13.335 50 12.9625 50 12.5017V11.6742C50 11.2133 49.6267 10.8408 49.1667 10.8408C48.7067 10.8408 48.3333 11.2133 48.3333 11.6742V12.5017Z" fill="#A47E1B"/>
<path d="M38.9192 1.66667H39.7475C40.2075 1.66667 40.5808 1.29417 40.5808 0.833333C40.5808 0.3725 40.2075 0 39.7475 0H38.9192C38.4592 0 38.0858 0.3725 38.0858 0.833333C38.0858 1.29417 38.4592 1.66667 38.9192 1.66667Z" fill="#A47E1B"/>
<path d="M45.5433 1.66667H46.3717C46.8317 1.66667 47.1842 1.29417 47.1842 0.833333C47.1842 0.3725 46.79 0 46.33 0H45.5442C45.0842 0 44.7108 0.3725 44.7108 0.833333C44.7108 1.29417 45.0833 1.66667 45.5433 1.66667Z" fill="#A47E1B"/>
<path d="M42.2317 1.66667H43.0592C43.5192 1.66667 43.8925 1.29417 43.8925 0.833333C43.8925 0.3725 43.5192 0 43.0592 0H42.2317C41.7717 0 41.3983 0.3725 41.3983 0.833333C41.3983 1.29417 41.7708 1.66667 42.2317 1.66667Z" fill="#A47E1B"/>
<path d="M48.1833 2.91C48.3158 3.2325 48.6267 3.42667 48.955 3.42667C49.06 3.42667 49.1675 3.4075 49.2708 3.36417C49.6967 3.19 49.9 2.70333 49.7258 2.27667C49.59 1.94667 49.4067 1.63667 49.1808 1.35833C48.89 0.999999 48.3658 0.946666 48.0083 1.23667C47.6508 1.52667 47.5958 2.05167 47.8858 2.40833C48.01 2.56083 48.11 2.72917 48.1833 2.91Z" fill="#A47E1B"/>
<path d="M49.1667 10.0233C49.6267 10.0233 50 9.65083 50 9.19V8.36167C50 7.90083 49.6267 7.52833 49.1667 7.52833C48.7067 7.52833 48.3333 7.90083 48.3333 8.36167V9.19C48.3333 9.65083 48.7067 10.0233 49.1667 10.0233Z" fill="#A47E1B"/>
<path d="M48.3333 15.8142C48.3333 16.275 48.7067 16.6475 49.1667 16.6475C49.6267 16.6475 50 16.275 50 15.8142V14.9867C50 14.5258 49.6267 14.1533 49.1667 14.1533C48.7067 14.1533 48.3333 14.5258 48.3333 14.9867V15.8142Z" fill="#A47E1B"/>
<path d="M49.1667 4.2175C48.7067 4.2175 48.3333 4.59 48.3333 5.05083V5.87833C48.3333 6.33917 48.7067 6.71167 49.1667 6.71167C49.6267 6.71167 50 6.33917 50 5.87833V5.05083C50 4.59 49.6267 4.2175 49.1667 4.2175Z" fill="#A47E1B"/>
<path d="M23.3333 10.48C23.7933 10.48 24.1667 10.1075 24.1667 9.64667V8.81917C24.1667 8.35833 23.7933 7.98583 23.3333 7.98583C22.8733 7.98583 22.5 8.35833 22.5 8.81917V9.64667C22.5 10.1075 22.8733 10.48 23.3333 10.48Z" fill="#A47E1B"/>
<path d="M23.3333 13.7925C23.7933 13.7925 24.1667 13.42 24.1667 12.9592V12.1308C24.1667 11.67 23.7933 11.2975 23.3333 11.2975C22.8733 11.2975 22.5 11.67 22.5 12.1308V12.9592C22.5 13.42 22.8733 13.7925 23.3333 13.7925Z" fill="#A47E1B"/>
<path d="M23.3333 20.4158C23.7933 20.4158 24.1667 20.0433 24.1667 19.5825V18.755C24.1667 18.2942 23.7933 17.9217 23.3333 17.9217C22.8733 17.9217 22.5 18.2942 22.5 18.755V19.5825C22.5 20.0433 22.8733 20.4158 23.3333 20.4158Z" fill="#A47E1B"/>
<path d="M35.6075 1.66667H36.4358C36.8958 1.66667 37.2692 1.29417 37.2692 0.833333C37.2692 0.3725 36.8958 0 36.4358 0H35.6075C35.1475 0 34.7742 0.3725 34.7742 0.833333C34.7742 1.29417 35.1475 1.66667 35.6075 1.66667Z" fill="#A47E1B"/>
<path d="M23.3333 7.16833C23.7933 7.16833 24.1667 6.79583 24.1667 6.335V5.50667C24.1667 5.04583 23.7933 4.67333 23.3333 4.67333C22.8733 4.67333 22.5 5.04583 22.5 5.50667V6.33417C22.5 6.795 22.8733 7.16833 23.3333 7.16833Z" fill="#A47E1B"/>
<path d="M23.3333 17.1042C23.7933 17.1042 24.1667 16.7317 24.1667 16.2708V15.4425C24.1667 14.9817 23.7933 14.6092 23.3333 14.6092C22.8733 14.6092 22.5 14.9817 22.5 15.4425V16.2708C22.5 16.7317 22.8733 17.1042 23.3333 17.1042Z" fill="#A47E1B"/>
<path d="M32.2958 1.66667H33.1233C33.5833 1.66667 33.9567 1.29417 33.9567 0.833333C33.9567 0.3725 33.5833 0 33.1233 0H32.2958C31.8358 0 31.4625 0.3725 31.4625 0.833333C31.4625 1.29417 31.8358 1.66667 32.2958 1.66667Z" fill="#A47E1B"/>
<path d="M28.9833 1.66667H29.8117C30.2717 1.66667 30.645 1.29417 30.645 0.833333C30.645 0.3725 30.2717 0 29.8117 0H28.9833C28.5233 0 28.15 0.3725 28.15 0.833333C28.15 1.29417 28.5233 1.66667 28.9833 1.66667Z" fill="#A47E1B"/>
<path d="M23.2183 3.84C23.2817 3.855 23.345 3.86083 23.4075 3.86083C23.7867 3.86083 24.1292 3.6 24.2183 3.21583C24.2625 3.02583 24.3342 2.845 24.4308 2.67583C24.66 2.27667 24.5217 1.76667 24.1225 1.53833C23.7233 1.30917 23.2133 1.44833 22.985 1.84583C22.8067 2.1575 22.675 2.49167 22.5942 2.84C22.4908 3.28833 22.77 3.73583 23.2183 3.84Z" fill="#A47E1B"/>
<path d="M25.6742 1.71C25.7225 1.71 25.7708 1.70583 25.82 1.69667C25.9342 1.6775 26.0517 1.66667 26.1708 1.66667H26.5C26.96 1.66667 27.3333 1.29417 27.3333 0.833333C27.3333 0.3725 26.96 0 26.5 0H26.1708C25.955 0 25.7392 0.0183333 25.5292 0.0558333C25.0758 0.135833 24.7733 0.5675 24.8533 1.02083C24.9258 1.42583 25.2775 1.71 25.6742 1.71Z" fill="#A47E1B"/>
<path d="M3.33333 18.3333C3.79333 18.3333 4.16667 17.9608 4.16667 17.5C4.16667 12.4458 8.27917 8.33333 13.3333 8.33333H15.4883L11.9108 11.9108C11.585 12.2367 11.585 12.7633 11.9108 13.0892C12.0733 13.2517 12.2867 13.3333 12.5 13.3333C12.7133 13.3333 12.9267 13.2517 13.0892 13.0892L18.0883 8.09C18.1658 8.01333 18.2267 7.92083 18.2692 7.81833C18.3533 7.615 18.3533 7.385 18.2692 7.18167C18.2267 7.07917 18.1658 6.98667 18.0883 6.91L13.0892 1.91083C12.7633 1.585 12.2367 1.585 11.9108 1.91083C11.585 2.23667 11.585 2.76333 11.9108 3.08917L15.4883 6.66667H13.3333C7.36 6.66667 2.5 11.5267 2.5 17.5C2.5 17.9608 2.87333 18.3333 3.33333 18.3333Z" fill="#A47E1B"/>
</svg>
